<?xml version="1.0" encoding="utf-8"?>
<svg width="448px" height="448px" viewbox="0 0 448 448" version="1.1" xmlns:xlink="http://www.w3.org/1999/xlink" xmlns="http://www.w3.org/2000/svg">
  <defs>
    <path d="M0 0L448 0L448 448L0 448L0 0Z" id="path_1" />
    <path d="M0 0L447.243 0L447.243 447.243L0 447.243L0 0L0 0Z" id="path_2" />
    <clipPath id="mask_1">
      <use xlink:href="#path_1" />
    </clipPath>
    <clipPath id="mask_2">
      <use xlink:href="#path_2" />
    </clipPath>
  </defs>
  <g id="arrow-left">
    <path d="M0 0L448 0L448 448L0 448L0 0Z" id="Background" fill="none" fill-rule="evenodd" stroke="none" />
    <g clip-path="url(#mask_1)">
      <g id="arrow">
        <path d="M0 0L447.243 0L447.243 447.243L0 447.243L0 0L0 0Z" id="Background" fill="none" fill-rule="evenodd" stroke="none" />
        <g id="Mask-group">
          <path d="M0 0L447.243 0L447.243 447.243L0 447.243L0 0L0 0Z" id="path_1" fill="none" fill-rule="evenodd" stroke="none" />
          <g clip-path="url(#mask_2)">
            <g id="Group" transform="translate(-0.00024414062 31.841614)">
              <g id="Group">
                <g id="Group#1">
                  <path d="M420.361 160.387C418.531 160.09 416.679 159.953 414.826 159.977L99.3053 159.977L106.185 156.777C112.91 153.594 119.028 149.262 124.265 143.977L212.745 55.4974C224.398 44.3734 226.356 26.4784 217.385 13.0974C206.944 -1.16162 186.921 -4.25762 172.661 6.18338C171.509 7.02738 170.414 7.94738 169.385 8.93737L9.38525 168.937C-3.11874 181.427 -3.12974 201.688 9.36025 214.192C9.36826 214.2 9.37726 214.209 9.38525 214.217L169.385 374.217C181.899 386.696 202.16 386.668 214.64 374.154C215.622 373.169 216.539 372.121 217.385 371.017C226.356 357.636 224.398 339.741 212.745 328.617L124.425 239.977C119.73 235.277 114.332 231.336 108.425 228.297L98.8253 223.977L413.065 223.977C429.412 224.584 443.754 213.165 446.825 197.097C449.654 179.652 437.806 163.217 420.361 160.387L420.361 160.387L420.361 160.387Z" id="Shape" fill="#356AB3" fill-rule="evenodd" stroke="none" />
                </g>
              </g>
            </g>
          </g>
        </g>
      </g>
    </g>
  </g>
</svg>