<?xml version="1.0" encoding="utf-8"?>
<svg width="37px" height="37px" viewbox="0 0 37 37" version="1.1" xmlns:xlink="http://www.w3.org/1999/xlink" xmlns="http://www.w3.org/2000/svg">
  <defs>
    <path d="M0 0L36.447 0L36.447 36.447L0 36.447L0 0Z" id="path_1" />
    <clipPath id="mask_1">
      <use xlink:href="#path_1" />
    </clipPath>
  </defs>
  <g id="calendar-interface-symbol-tool">
    <path d="M0 0L36.447 0L36.447 36.447L0 36.447L0 0Z" id="Background" fill="none" fill-rule="evenodd" stroke="none" />
    <g clip-path="url(#mask_1)">
      <g id="Group" transform="translate(1.973999 0)">
        <g id="Group">
          <path d="M28.25 3.948L27.152 3.948L27.152 2.75C27.152 1.233 25.955 0 24.482 0C23.008 0 21.812 1.233 21.812 2.75L21.812 3.947L19.072 3.947L19.072 2.75C19.072 1.233 17.875 0 16.402 0C14.929 0 13.732 1.233 13.732 2.75L13.732 3.947L10.992 3.947L10.992 2.75C10.992 1.233 9.795 0 8.322 0C6.849 0 5.652 1.233 5.652 2.75L5.652 3.947L4.25 3.947C1.907 3.947 0 5.854 0 8.197L0 32.197C0 34.54 1.907 36.447 4.25 36.447L28.25 36.447C30.594 36.447 32.5 34.54 32.5 32.197L32.5 8.197C32.5 5.855 30.593 3.948 28.25 3.948L28.25 3.948ZM23.312 2.75C23.312 2.061 23.837 1.5 24.482 1.5C25.128 1.5 25.652 2.061 25.652 2.75L25.652 7.646C25.652 8.335 25.128 8.896 24.482 8.896C23.837 8.896 23.312 8.335 23.312 7.646L23.312 2.75L23.312 2.75ZM15.232 2.75C15.232 2.061 15.757 1.5 16.402 1.5C17.047 1.5 17.572 2.061 17.572 2.75L17.572 7.646C17.572 8.335 17.047 8.896 16.402 8.896C15.757 8.896 15.232 8.335 15.232 7.646L15.232 2.75L15.232 2.75ZM7.151 2.75C7.151 2.061 7.676 1.5 8.321 1.5C8.966 1.5 9.491 2.061 9.491 2.75L9.491 7.646C9.491 8.335 8.966 8.896 8.321 8.896C7.676 8.896 7.151 8.335 7.151 7.646L7.151 2.75L7.151 2.75ZM30 32.198C30 33.163 29.215 33.948 28.25 33.948L4.25 33.948C3.285 33.948 2.5 33.163 2.5 32.198L2.5 10.198L30 10.198L30 32.198L30 32.198Z" id="Shape" fill="#356AB3" fill-rule="evenodd" stroke="none" />
          <path d="M0 0L4.595 0L4.595 4.089L0 4.089L0 0Z" transform="translate(4.75 14.626)" id="Rectangle" fill="#356AB3" fill-rule="evenodd" stroke="none" />
          <path d="M0 0L4.596 0L4.596 4.089L0 4.089L0 0Z" transform="translate(10.883 14.626)" id="Rectangle" fill="#356AB3" fill-rule="evenodd" stroke="none" />
          <path d="M0 0L4.595 0L4.595 4.089L0 4.089L0 0Z" transform="translate(17.021 14.626)" id="Rectangle" fill="#356AB3" fill-rule="evenodd" stroke="none" />
          <path d="M0 0L4.596 0L4.596 4.089L0 4.089L0 0Z" transform="translate(23.154 14.626)" id="Rectangle" fill="#356AB3" fill-rule="evenodd" stroke="none" />
          <path d="M0 0L4.595 0L4.595 4.086L0 4.086L0 0Z" transform="translate(4.75 20.084)" id="Rectangle" fill="#356AB3" fill-rule="evenodd" stroke="none" />
          <path d="M0 0L4.596 0L4.596 4.086L0 4.086L0 0Z" transform="translate(10.883 20.084)" id="Rectangle" fill="#356AB3" fill-rule="evenodd" stroke="none" />
          <path d="M0 0L4.595 0L4.595 4.086L0 4.086L0 0Z" transform="translate(17.021 20.084)" id="Rectangle" fill="#356AB3" fill-rule="evenodd" stroke="none" />
          <path d="M0 0L4.596 0L4.596 4.086L0 4.086L0 0Z" transform="translate(23.154 20.084)" id="Rectangle" fill="#356AB3" fill-rule="evenodd" stroke="none" />
          <path d="M0 0L4.595 0L4.595 4.086L0 4.086L0 0Z" transform="translate(4.75 25.54)" id="Rectangle" fill="#356AB3" fill-rule="evenodd" stroke="none" />
          <path d="M0 0L4.596 0L4.596 4.086L0 4.086L0 0Z" transform="translate(10.883 25.54)" id="Rectangle" fill="#356AB3" fill-rule="evenodd" stroke="none" />
          <path d="M0 0L4.595 0L4.595 4.086L0 4.086L0 0Z" transform="translate(17.021 25.54)" id="Rectangle" fill="#356AB3" fill-rule="evenodd" stroke="none" />
          <path d="M0 0L4.596 0L4.596 4.086L0 4.086L0 0Z" transform="translate(23.154 25.54)" id="Rectangle" fill="#356AB3" fill-rule="evenodd" stroke="none" />
        </g>
      </g>
    </g>
  </g>
</svg>