<?xml version="1.0" encoding="utf-8"?>
<svg width="508px" height="508px" viewbox="0 0 508 508" version="1.1" xmlns:xlink="http://www.w3.org/1999/xlink" xmlns="http://www.w3.org/2000/svg">
  <g id="checked">
    <path d="M0 253.6C0 113.541 113.541 0 253.6 0C393.659 0 507.2 113.541 507.2 253.6C507.2 393.659 393.659 507.2 253.6 507.2C113.541 507.2 0 393.659 0 253.6Z" id="Circle" fill="#356AB3" fill-rule="evenodd" stroke="none" />
    <path d="M0 216L130.4 346.4C238.4 317.6 318.4 219.2 318.4 101.6C318.4 99.2 318.4 96.8 318.4 94.4L216 0L0 216L0 216Z" transform="translate(188.79993 152)" id="Shape" fill="#265699" fill-rule="evenodd" stroke="none" />
    <g id="Group" transform="translate(85.19983 125.20001)">
      <path d="M174.8 110.8C186 122 186 141.2 174.8 152.4L151.6 175.6C140.4 186.8 121.2 186.8 110 175.6L8.4 73.2C-2.8 62 -2.8 42.8 8.4 31.6L31.6 8.39999C42.8 -2.8 62 -2.8 73.2 8.39999L174.8 110.8L174.8 110.8Z" transform="translate(0 74.39998)" id="Shape" fill="#FFFFFF" fill-rule="evenodd" stroke="none" />
      <path d="M184.4 8.39999C195.6 -2.8 214.8 -2.8 226 8.39999L249.2 31.6C260.4 42.8 260.4 62 249.2 73.2L73.2 248.4C62 259.6 42.8 259.6 31.6 248.4L8.39999 225.2C-2.8 214 -2.8 194.8 8.39999 183.6L184.4 8.39999L184.4 8.39999Z" transform="translate(79.20001 0)" id="Shape" fill="#FFFFFF" fill-rule="evenodd" stroke="none" />
    </g>
  </g>
</svg>