<?xml version="1.0" encoding="utf-8"?>
<svg width="512px" height="512px" viewBox="0 0 512 512" version="1.1" xmlns:xlink="http://www.w3.org/1999/xlink" xmlns="http://www.w3.org/2000/svg">
  <defs>
    <path d="M0 0L512 0L512 512L0 512L0 0Z" id="path_1" />
    <clipPath id="mask_1">
      <use xlink:href="#path_1" />
    </clipPath>
  </defs>
  <g id="clock-regular">
    <path d="M0 0L512 0L512 512L0 512L0 0Z" id="Background" fill="none" fill-rule="evenodd" stroke="none" />
    <g clip-path="url(#mask_1)">
      <path d="M248 0C111 0 0 111 0 248C0 385 111 496 248 496C385 496 496 385 496 248C496 111 385 0 248 0L248 0ZM248 448C137.5 448 48 358.5 48 248C48 137.5 137.5 48 248 48C358.5 48 448 137.5 448 248C448 358.5 358.5 448 248 448L248 448ZM309.8 343.6L224.9 281.9C221.8 279.6 220 276 220 272.2L220 108C220 101.4 225.4 96 232 96L264 96C270.6 96 276 101.4 276 108L276 249.7L342.8 298.3C348.2 302.2 349.3 309.7 345.4 315.1L326.6 341C322.7 346.3 315.2 347.5 309.8 343.6L309.8 343.6Z" transform="translate(8 8)" id="Shape" fill="#356BB3" fill-rule="evenodd" stroke="none" />
    </g>
  </g>
</svg>