<?xml version="1.0" encoding="utf-8"?>
<svg width="512px" height="512px" viewbox="0 0 512 512" version="1.1" xmlns:xlink="http://www.w3.org/1999/xlink" xmlns="http://www.w3.org/2000/svg">
  <defs>
    <path d="M0 0L512 0L512 512L0 512L0 0Z" id="path_1" />
    <clipPath id="mask_1">
      <use xlink:href="#path_1" />
    </clipPath>
  </defs>
  <g id="download">
    <path d="M0 0L512 0L512 512L0 512L0 0Z" id="Background" fill="none" fill-rule="evenodd" stroke="none" />
    <g clip-path="url(#mask_1)">
      <g id="Group" transform="translate(127.99805 0)">
        <g id="Group">
          <path d="M254.562 233.376C251.97 227.648 246.274 224 240.002 224L176.002 224L176.002 16C176.002 7.168 168.834 0 160.002 0L96.002 0C87.17 0 80.002 7.168 80.002 16L80.002 224L16.002 224C9.72996 224 4.03396 227.68 1.44196 233.376C-1.18204 239.104 -0.158035 245.792 3.96996 250.528L115.97 378.528C119.01 382.016 123.394 384 128.002 384C132.61 384 136.994 381.984 140.034 378.528L252.034 250.528C256.194 245.824 257.154 239.104 254.562 233.376L254.562 233.376Z" id="Shape" fill="#006AB3" fill-rule="evenodd" stroke="none" />
        </g>
      </g>
      <g id="Group" transform="translate(16 352)">
        <g id="Group">
          <path d="M416 0L416 96L64 96L64 0L0 0L0 128C0 145.696 14.336 160 32 160L448 160C465.696 160 480 145.696 480 128L480 0L416 0L416 0Z" id="Shape" fill="#939598" fill-rule="evenodd" stroke="none" />
        </g>
      </g>
    </g>
  </g>
</svg>