<?xml version="1.0" encoding="utf-8"?>
<svg width="409px" height="409px" viewbox="0 0 409 409" version="1.1" xmlns:xlink="http://www.w3.org/1999/xlink" xmlns="http://www.w3.org/2000/svg">
  <defs>
    <path d="M0 0L408.788 0L408.788 408.788L0 408.788L0 0Z" id="path_1" />
    <clipPath id="mask_1">
      <use xlink:href="#path_1" />
    </clipPath>
  </defs>
  <g id="facebook">
    <path d="M0 0L408.788 0L408.788 408.788L0 408.788L0 0Z" id="Background" fill="none" fill-rule="evenodd" stroke="none" />
    <g clip-path="url(#mask_1)">
      <path d="M353.699 0L55.085 0C24.663 0 0 24.662 0 55.085L0 353.701C0 384.124 24.662 408.786 55.085 408.786L202.36 408.786L202.611 262.708L164.66 262.708C159.728 262.708 155.725 258.72 155.706 253.788L155.524 206.701C155.505 201.742 159.52 197.712 164.479 197.712L202.361 197.712L202.361 152.214C202.361 99.414 234.608 70.664 281.709 70.664L320.359 70.664C325.304 70.664 329.314 74.673 329.314 79.619L329.314 119.323C329.314 124.267 325.307 128.275 320.364 128.278L296.645 128.289C271.03 128.289 266.07 140.461 266.07 158.324L266.07 197.713L322.355 197.713C327.718 197.713 331.879 202.396 331.247 207.722L325.666 254.809C325.132 259.315 321.311 262.71 316.774 262.71L266.321 262.71L266.07 408.788L353.701 408.788C384.123 408.788 408.785 384.126 408.785 353.704L408.785 55.085C408.784 24.662 384.122 0 353.699 0L353.699 0Z" transform="translate(0.0019989014 0)" id="Shape" fill="#000000" fill-rule="evenodd" stroke="none" />
    </g>
  </g>
</svg>