<?xml version="1.0" encoding="utf-8"?>
<svg width="24px" height="24px" viewBox="0 0 24 24" version="1.1" xmlns:xlink="http://www.w3.org/1999/xlink" xmlns="http://www.w3.org/2000/svg">
  <defs>
    <path d="M0 0L24 0L24 24L0 24L0 0Z" id="path_1" />
    <clipPath id="mask_1">
      <use xlink:href="#path_1" />
    </clipPath>
  </defs>
  <g id="tick-svgrepo-com">
    <path d="M0 0L24 0L24 24L0 24L0 0Z" id="Background" fill="none" fill-rule="evenodd" stroke="none" />
    <g clip-path="url(#mask_1)">
      <path d="M11.9999 0C5.38321 0 0 5.38309 0 11.9999C0 18.6168 5.38321 24 11.9999 24C18.6167 24 23.9999 18.6168 23.9999 11.9999C23.9999 5.38308 18.6168 0 11.9999 0L11.9999 0ZM18.8915 9.97304L11.3526 17.512C11.032 17.8325 10.6059 18.009 10.1526 18.009C9.69935 18.009 9.27324 17.8325 8.95268 17.512L5.11039 13.6697C4.78984 13.3491 4.61328 12.923 4.61328 12.4697C4.61328 12.0163 4.78984 11.5902 5.11039 11.2697C5.43082 10.9491 5.85694 10.7726 6.31035 10.7726C6.76364 10.7726 7.18988 10.9491 7.51031 11.2698L10.1525 13.9119L16.4914 7.57301C16.8119 7.25245 17.2381 7.07602 17.6913 7.07602C18.1446 7.07602 18.5707 7.25245 18.8913 7.57301C19.5532 8.2349 19.5532 9.3114 18.8915 9.97304L18.8915 9.97304Z" id="Shape" fill="#4FB826" fill-rule="evenodd" stroke="none" />
    </g>
  </g>
</svg>