<svg xmlns="http://www.w3.org/2000/svg" width="455" height="455" viewBox="0 0 455 455">
  <path id="Path_13861" data-name="Path 13861" d="M0,0V455H455V0H0ZM141.522,378H74.016v-203.1h67.506ZM107.769,147.186h-.446c-22.645,0-37.323-15.6-37.323-35.1C70,92.157,85.107,77,108.211,77s37.31,15.159,37.752,35.087C145.963,131.585,131.32,147.186,107.769,147.186ZM385,378H317.476V269.345c0-27.291-9.756-45.92-34.2-45.92-18.664,0-29.755,12.543-34.641,24.693-1.776,4.34-2.24,10.373-2.24,16.459V378H178.863s.9-184.043,0-203.1H246.4v28.779c8.973-13.807,24.986-33.547,60.856-33.547,44.437,0,77.744,29.02,77.744,91.4Z" fill="#fff" fill-rule="evenodd"/>
</svg>
