<svg xmlns="http://www.w3.org/2000/svg" width="455" height="455" viewBox="0 0 455 455">
  <path id="twitter" d="M0,0V455H455V0ZM352.751,163.259q.184,4.159.186,8.36c0,85.4-65,183.876-183.873,183.876A182.886,182.886,0,0,1,70,326.458,130.429,130.429,0,0,0,165.678,299.7a64.69,64.69,0,0,1-60.373-44.88,64.679,64.679,0,0,0,29.188-1.105,64.668,64.668,0,0,1-51.841-63.368c0-.273,0-.544.006-.814a64.366,64.366,0,0,0,29.271,8.084,64.7,64.7,0,0,1-20-86.282,183.475,183.475,0,0,0,133.2,67.526,64.666,64.666,0,0,1,110.122-58.946A129.352,129.352,0,0,0,376.3,104.231a64.811,64.811,0,0,1-28.415,35.754A129.227,129.227,0,0,0,385,129.807,131.232,131.232,0,0,1,352.751,163.259Z" fill="#fff" fill-rule="evenodd"/>
</svg>
