<svg id="youtube" xmlns="http://www.w3.org/2000/svg" width="455" height="455" viewBox="0 0 455 455">
  <path id="Path_13862" data-name="Path 13862" d="M0,0V455H455V0ZM379.493,301.961c-3.861,16.75-17.563,29.118-34.057,30.96-39.044,4.353-78.575,4.382-117.952,4.353-39.361.029-78.892,0-117.948-4.353-16.5-1.841-30.2-14.21-34.04-30.96C70,278.114,70,252.061,70,227.5s.065-50.6,5.556-74.45C79.4,136.283,93.1,123.931,109.58,122.09c39.06-4.365,78.608-4.382,117.969-4.365,39.357-.016,78.892,0,117.948,4.365,16.5,1.841,30.2,14.193,34.057,30.959C385.049,176.9,385,202.937,385,227.5S384.984,278.114,379.493,301.961Z" fill="#fff" fill-rule="evenodd"/>
  <path id="Path_13863" data-name="Path 13863" d="M186.855,276.4c33.467-17.355,66.638-34.565,100.138-51.932-33.6-17.53-66.764-34.821-100.138-52.237V276.4Z" fill="#fff" fill-rule="evenodd"/>
</svg>
